<svg xmlns="http://www.w3.org/2000/svg" viewBox="0 0 640 640"><!--! Font Awesome Pro 7.1.0 by @fontawesome - https://fontawesome.com License - https://fontawesome.com/license (Commercial License) Copyright 2025 Fonticons, Inc. --><path fill="currentColor" d="M472.5 212.1C485 199.6 485 179.4 472.5 166.9C440.5 138.2 415.4 182 390.5 200.4C365.6 221.4 341.1 246.5 317.4 269.7C283.8 236.8 249.8 204.3 214.9 172.5C201.8 160.6 181.6 161.5 169.7 174.5C157.8 187.6 158.7 207.8 171.8 219.7C205.6 250.6 238.8 282.3 271.6 314.4C252.2 333.4 233.2 353.6 215.2 373C195.9 400.7 137.7 429.2 169.3 466.3C206.9 498.5 236.7 437.9 261.7 417C280.3 397.1 298.1 378.1 317.2 359.4C352.2 394.4 389 427.7 423.6 462.2C436.1 474.7 456.4 474.7 468.9 462.2C481.4 449.7 481.4 429.4 468.9 417C434.1 382.2 397.5 349.1 363 314.7C397.7 278.6 435.7 247.1 472.6 212.1z"/></svg>